HIERARCHY
ROOT mixamorig:Hips
{
	OFFSET 0.000000 201.639420 0.000000
	CHANNELS 6 Xposition Yposition Zposition Xrotation Yrotation Zrotation
	JOINT mixamorig:Spine
	{
		OFFSET 0.006200 19.524994 -2.481800
		CHANNELS 3 Xrotation Yrotation Zrotation
		JOINT mixamorig:Spine1
		{
			OFFSET -0.000900 22.835007 -2.825400
			CHANNELS 3 Xrotation Yrotation Zrotation
			JOINT mixamorig:Spine2
			{
				OFFSET -0.020600 26.552490 -3.193300
				CHANNELS 3 Xrotation Yrotation Zrotation
				JOINT mixamorig:Neck
				{
					OFFSET -0.060000 30.701813 1.352200
					CHANNELS 3 Xrotation Yrotation Zrotation
					JOINT mixamorig:Head
					{
						OFFSET -0.087200 22.547607 3.670900
						CHANNELS 3 Xrotation Yrotation Zrotation
						JOINT mixamorig:HeadTop_End
						{
							OFFSET -0.830600 40.355194 7.893500
							CHANNELS 3 Xrotation Yrotation Zrotation
							End Site
							{
								OFFSET 0.000000 30.592346 0.000000
							}
						}
						JOINT mixamorig:RightEye
						{
							OFFSET -6.302100 18.118591 16.197100
							CHANNELS 3 Xrotation Yrotation Zrotation
							End Site
							{
								OFFSET 0.000000 30.592346 0.000000
							}
						}
						JOINT mixamorig:LeftEye
						{
							OFFSET 6.741500 18.382690 16.401899
							CHANNELS 3 Xrotation Yrotation Zrotation
							End Site
							{
								OFFSET 0.000000 30.592346 0.000000
							}
						}
					}
				}
				JOINT mixamorig:LeftShoulder
				{
					OFFSET 11.924900 18.230499 1.425400
					CHANNELS 3 Xrotation Yrotation Zrotation
					JOINT mixamorig:LeftArm
					{
						OFFSET 25.435989 -0.697632 -5.229300
						CHANNELS 3 Xrotation Yrotation Zrotation
						JOINT mixamorig:LeftForeArm
						{
							OFFSET 54.684776 0.000000 0.000000
							CHANNELS 3 Xrotation Yrotation Zrotation
							JOINT mixamorig:LeftHand
							{
								OFFSET 55.098175 0.000000 0.000000
								CHANNELS 3 Xrotation Yrotation Zrotation
								JOINT mixamorig:LeftHandMiddle1
								{
									OFFSET 23.369751 0.000000 0.000000
									CHANNELS 3 Xrotation Yrotation Zrotation
									JOINT mixamorig:LeftHandMiddle2
									{
										OFFSET 6.378677 0.000000 0.000000
										CHANNELS 3 Xrotation Yrotation Zrotation
										JOINT mixamorig:LeftHandMiddle3
										{
											OFFSET 6.148331 0.000000 0.000000
											CHANNELS 3 Xrotation Yrotation Zrotation
											JOINT mixamorig:LeftHandMiddle4
											{
												OFFSET 6.582504 0.000000 0.000000
												CHANNELS 3 Xrotation Yrotation Zrotation
												End Site
												{
													OFFSET -1.168900 6.395691 1.028606
												}
											}
										}
									}
								}
								JOINT mixamorig:LeftHandThumb1
								{
									OFFSET 7.235672 -3.848206 5.434273
									CHANNELS 3 Xrotation Yrotation Zrotation
									JOINT mixamorig:LeftHandThumb2
									{
										OFFSET 6.568451 -3.792297 3.792300
										CHANNELS 3 Xrotation Yrotation Zrotation
										JOINT mixamorig:LeftHandThumb3
										{
											OFFSET 6.063080 -3.500519 3.500518
											CHANNELS 3 Xrotation Yrotation Zrotation
											JOINT mixamorig:LeftHandThumb4
											{
												OFFSET 4.793182 -2.767334 2.767349
												CHANNELS 3 Xrotation Yrotation Zrotation
												End Site
												{
													OFFSET 0.101639 6.054260 1.275483
												}
											}
										}
									}
								}
								JOINT mixamorig:LeftHandIndex1
								{
									OFFSET 23.101074 -0.309540 4.992809
									CHANNELS 3 Xrotation Yrotation Zrotation
									JOINT mixamorig:LeftHandIndex2
									{
										OFFSET 6.226883 0.000000 0.000000
										CHANNELS 3 Xrotation Yrotation Zrotation
										JOINT mixamorig:LeftHandIndex3
										{
											OFFSET 6.094330 0.000000 0.000000
											CHANNELS 3 Xrotation Yrotation Zrotation
											JOINT mixamorig:LeftHandIndex4
											{
												OFFSET 5.482605 0.000000 0.000000
												CHANNELS 3 Xrotation Yrotation Zrotation
												End Site
												{
													OFFSET -1.427902 5.233032 0.797164
												}
											}
										}
									}
								}
								JOINT mixamorig:LeftHandRing1
								{
									OFFSET 22.299240 0.021149 -3.964172
									CHANNELS 3 Xrotation Yrotation Zrotation
									JOINT mixamorig:LeftHandRing2
									{
										OFFSET 6.321869 0.000000 0.000000
										CHANNELS 3 Xrotation Yrotation Zrotation
										JOINT mixamorig:LeftHandRing3
										{
											OFFSET 5.899796 0.000000 0.000000
											CHANNELS 3 Xrotation Yrotation Zrotation
											JOINT mixamorig:LeftHandRing4
											{
												OFFSET 6.517899 0.000000 0.000000
												CHANNELS 3 Xrotation Yrotation Zrotation
												End Site
												{
													OFFSET -1.637299 6.232208 0.980890
												}
											}
										}
									}
								}
								JOINT mixamorig:LeftHandPinky1
								{
									OFFSET 20.463791 -0.302338 -8.562233
									CHANNELS 3 Xrotation Yrotation Zrotation
									JOINT mixamorig:LeftHandPinky2
									{
										OFFSET 6.908646 0.000000 0.000000
										CHANNELS 3 Xrotation Yrotation Zrotation
										JOINT mixamorig:LeftHandPinky3
										{
											OFFSET 4.622849 0.000000 0.000000
											CHANNELS 3 Xrotation Yrotation Zrotation
											JOINT mixamorig:LeftHandPinky4
											{
												OFFSET 5.216080 0.000000 0.000000
												CHANNELS 3 Xrotation Yrotation Zrotation
												End Site
												{
													OFFSET -0.606308 5.116241 0.814926
												}
											}
										}
									}
								}
							}
						}
					}
				}
				JOINT mixamorig:RightShoulder
				{
					OFFSET -12.001300 18.284088 1.348900
					CHANNELS 3 Xrotation Yrotation Zrotation
					JOINT mixamorig:RightArm
					{
						OFFSET -25.308500 -0.751312 -5.164599
						CHANNELS 3 Xrotation Yrotation Zrotation
						JOINT mixamorig:RightForeArm
						{
							OFFSET -54.684429 0.000000 0.000000
							CHANNELS 3 Xrotation Yrotation Zrotation
							JOINT mixamorig:RightHand
							{
								OFFSET -55.150291 0.000000 0.000000
								CHANNELS 3 Xrotation Yrotation Zrotation
								JOINT mixamorig:RightHandMiddle1
								{
									OFFSET -23.317566 0.000000 0.000000
									CHANNELS 3 Xrotation Yrotation Zrotation
									JOINT mixamorig:RightHandMiddle2
									{
										OFFSET -6.378403 0.000000 0.000000
										CHANNELS 3 Xrotation Yrotation Zrotation
										JOINT mixamorig:RightHandMiddle3
										{
											OFFSET -6.148193 0.000000 0.000000
											CHANNELS 3 Xrotation Yrotation Zrotation
											JOINT mixamorig:RightHandMiddle4
											{
												OFFSET -6.583389 0.000000 0.000000
												CHANNELS 3 Xrotation Yrotation Zrotation
												End Site
												{
													OFFSET 1.171692 6.395905 1.029786
												}
											}
										}
									}
								}
								JOINT mixamorig:RightHandThumb1
								{
									OFFSET -7.190521 -3.860474 5.435846
									CHANNELS 3 Xrotation Yrotation Zrotation
									JOINT mixamorig:RightHandThumb2
									{
										OFFSET -6.567429 -3.791718 3.791708
										CHANNELS 3 Xrotation Yrotation Zrotation
										JOINT mixamorig:RightHandThumb3
										{
											OFFSET -6.062469 -3.500153 3.500166
											CHANNELS 3 Xrotation Yrotation Zrotation
											JOINT mixamorig:RightHandThumb4
											{
												OFFSET -4.792618 -2.767029 2.767022
												CHANNELS 3 Xrotation Yrotation Zrotation
												End Site
												{
													OFFSET -0.100327 6.053253 1.276754
												}
											}
										}
									}
								}
								JOINT mixamorig:RightHandIndex1
								{
									OFFSET -23.048981 -0.310791 4.992554
									CHANNELS 3 Xrotation Yrotation Zrotation
									JOINT mixamorig:RightHandIndex2
									{
										OFFSET -6.227539 0.000000 0.000000
										CHANNELS 3 Xrotation Yrotation Zrotation
										JOINT mixamorig:RightHandIndex3
										{
											OFFSET -6.095047 0.000000 0.000000
											CHANNELS 3 Xrotation Yrotation Zrotation
											JOINT mixamorig:RightHandIndex4
											{
												OFFSET -5.484772 0.000000 0.000000
												CHANNELS 3 Xrotation Yrotation Zrotation
												End Site
												{
													OFFSET 1.420593 5.237305 0.797056
												}
											}
										}
									}
								}
								JOINT mixamorig:RightHandRing1
								{
									OFFSET -22.246323 0.020569 -3.963762
									CHANNELS 3 Xrotation Yrotation Zrotation
									JOINT mixamorig:RightHandRing2
									{
										OFFSET -6.322128 0.000000 0.000000
										CHANNELS 3 Xrotation Yrotation Zrotation
										JOINT mixamorig:RightHandRing3
										{
											OFFSET -5.900024 0.000000 0.000000
											CHANNELS 3 Xrotation Yrotation Zrotation
											JOINT mixamorig:RightHandRing4
											{
												OFFSET -6.518356 0.000000 0.000000
												CHANNELS 3 Xrotation Yrotation Zrotation
												End Site
												{
													OFFSET 1.636398 6.232697 0.982186
												}
											}
										}
									}
								}
								JOINT mixamorig:RightHandPinky1
								{
									OFFSET -20.411011 -0.303314 -8.561701
									CHANNELS 3 Xrotation Yrotation Zrotation
									JOINT mixamorig:RightHandPinky2
									{
										OFFSET -6.907349 0.000000 0.000000
										CHANNELS 3 Xrotation Yrotation Zrotation
										JOINT mixamorig:RightHandPinky3
										{
											OFFSET -4.623840 0.000000 0.000000
											CHANNELS 3 Xrotation Yrotation Zrotation
											JOINT mixamorig:RightHandPinky4
											{
												OFFSET -5.218353 0.000000 0.000000
												CHANNELS 3 Xrotation Yrotation Zrotation
												End Site
												{
													OFFSET 0.602097 5.118835 0.816273
												}
											}
										}
									}
								}
							}
						}
					}
				}
			}
		}
	}
	JOINT mixamorig:LeftUpLeg
	{
		OFFSET 18.168400 -13.561905 -0.039000
		CHANNELS 3 Xrotation Yrotation Zrotation
		JOINT mixamorig:LeftLeg
		{
			OFFSET 0.577358 -80.825211 -3.695000
			CHANNELS 3 Xrotation Yrotation Zrotation
			JOINT mixamorig:LeftFoot
			{
				OFFSET -0.577356 -83.370262 -6.520700
				CHANNELS 3 Xrotation Yrotation Zrotation
				JOINT mixamorig:LeftToeBase
				{
					OFFSET 0.750401 -20.798306 25.135401
					CHANNELS 3 Xrotation Yrotation Zrotation
					JOINT mixamorig:LeftToe_End
					{
						OFFSET -0.000500 0.001200 19.917799
						CHANNELS 3 Xrotation Yrotation Zrotation
						End Site
						{
							OFFSET 0.000000 19.917805 0.000000
						}
					}
				}
			}
		}
	}
	JOINT mixamorig:RightUpLeg
	{
		OFFSET -18.162500 -13.585098 -0.041000
		CHANNELS 3 Xrotation Yrotation Zrotation
		JOINT mixamorig:RightLeg
		{
			OFFSET -0.595024 -80.945297 -3.631900
			CHANNELS 3 Xrotation Yrotation Zrotation
			JOINT mixamorig:RightFoot
			{
				OFFSET 0.595024 -83.218193 -6.561200
				CHANNELS 3 Xrotation Yrotation Zrotation
				JOINT mixamorig:RightToeBase
				{
					OFFSET -0.753601 -20.807106 25.115000
					CHANNELS 3 Xrotation Yrotation Zrotation
					JOINT mixamorig:RightToe_End
					{
						OFFSET 0.000299 0.001700 19.918200
						CHANNELS 3 Xrotation Yrotation Zrotation
						End Site
						{
							OFFSET 0.000000 19.918203 0.000000
						}
					}
				}
			}
		}
	}
}
MOTION
Frames: 4
Frame Time: 0.033333
10.378957 185.492630 7.738697 -6.135558 -55.267517 -2.904026 3.905886 0.404744 -1.242124 7.762939 0.736608 -0.483309 7.766424 0.699444 -0.479819 0.991585 6.049532 -4.490119 -2.920807 28.404730 -12.358233 -0.000002 -0.000000 -0.000000 -0.000002 -0.000000 -0.000000 -0.000002 -0.000000 -0.000000 0.228537 2.190958 -1.671771 -41.736571 23.863487 -41.512046 0.000386 -104.000920 0.000403 -14.032339 0.415151 1.267650 0.092216 1.125458 -9.368815 0.130754 1.338167 -11.161018 0.138199 1.375315 -11.475123 0.000005 0.000002 0.000003 -8.267832 1.282174 18.901206 3.939047 7.948712 0.746813 -0.579474 1.574994 2.538725 0.000000 0.000002 -0.000000 0.120544 1.285275 -10.714323 0.120525 1.285273 -10.714359 0.120530 1.285267 -10.714332 0.000001 0.000000 0.000001 0.110024 1.228380 -10.234710 0.154973 1.455512 -12.154505 0.164256 1.497937 -12.514483 -0.000004 0.000001 0.000000 1.117214 5.553195 -12.982238 0.185514 -2.449924 -13.931549 0.189186 1.606070 -13.434682 0.000000 0.000000 0.000001 -0.475749 -7.079963 -1.873127 -57.271044 43.839026 82.970242 0.000072 99.642775 -0.000018 -2.733684 23.387942 -0.246311 0.033494 -0.683073 5.614152 0.047211 -0.810605 6.666945 0.050041 -0.834471 6.864347 -0.000001 0.000000 -0.000005 2.272862 -2.049735 -26.561030 4.637194 -8.634121 -0.225407 -1.273753 0.137316 -2.094867 -0.000001 -0.000001 0.000000 0.043264 -0.776127 6.382120 0.043278 -0.776124 6.382153 0.043271 -0.776114 6.382152 -0.000002 0.000001 0.000000 0.040179 -0.748022 6.150118 0.056660 -0.887600 7.303467 0.060046 -0.913685 7.519720 -0.000001 0.000002 -0.000002 0.069612 -0.983461 8.097410 0.069609 -0.983434 8.097447 0.069611 -0.983422 8.097420 0.000002 -0.000001 0.000002 -24.042438 10.456912 19.890482 35.820579 -4.881931 1.495672 -8.062889 2.047072 -15.715369 -0.000027 0.000003 -0.000009 0.000000 -0.000002 -0.000000 -22.618171 -11.520750 -27.094829 33.776607 9.340306 -2.516762 -10.179820 -0.479412 18.373451 -0.000018 0.000036 0.000007 0.000000 0.000002 0.000000 
10.753488 184.741898 7.871226 -5.402940 -52.708409 -1.922484 4.031499 0.381043 -1.051978 8.004864 0.724047 -0.351837 8.007789 0.691281 -0.348528 0.629937 5.676224 -4.685599 -3.713021 26.218683 -12.162462 0.000000 -0.000000 -0.000000 0.000000 -0.000000 -0.000000 0.000000 -0.000000 -0.000000 0.256859 1.814339 -1.554734 -42.385477 21.493325 -43.902400 0.000293 -103.501763 0.000286 -13.834537 0.372635 1.368917 0.092217 1.125457 -9.368811 0.130756 1.338171 -11.161013 0.138199 1.375314 -11.475120 0.000004 -0.000001 -0.000002 -8.267832 1.282175 18.901210 3.939046 7.948714 0.746813 -0.579475 1.575002 2.538725 0.000000 0.000002 0.000000 0.120545 1.285276 -10.714321 0.120521 1.285273 -10.714358 0.120532 1.285271 -10.714337 -0.000002 0.000001 -0.000001 0.110026 1.228380 -10.234711 0.154969 1.455517 -12.154494 0.164256 1.497939 -12.514484 0.000001 0.000001 0.000003 1.117214 5.553198 -12.982237 0.185512 -2.449921 -13.931549 0.189192 1.606067 -13.434684 -0.000004 -0.000000 0.000001 -0.445105 -6.844404 -1.797627 -56.299648 42.182275 81.728493 -0.000029 100.164970 -0.000002 -1.773387 23.728955 -0.344419 0.033498 -0.683075 5.614144 0.047210 -0.810606 6.666945 0.050048 -0.834462 6.864343 -0.000001 0.000000 0.000002 2.272869 -2.049738 -26.561028 4.637203 -8.634122 -0.225409 -1.273756 0.137315 -2.094867 0.000000 0.000001 -0.000001 0.043269 -0.776129 6.382123 0.043276 -0.776122 6.382154 0.043270 -0.776113 6.382145 0.000005 -0.000001 0.000001 0.040186 -0.748023 6.150121 0.056660 -0.887601 7.303473 0.060042 -0.913682 7.519718 -0.000003 0.000004 0.000001 0.069615 -0.983460 8.097401 0.069614 -0.983433 8.097448 0.069604 -0.983419 8.097417 0.000000 -0.000003 0.000001 -25.856053 9.556875 19.075842 37.418102 -6.595878 1.643678 -8.412256 2.024118 -15.038594 -0.000006 0.000020 0.000005 0.000000 0.000000 0.000000 -22.947839 -12.038272 -28.458145 35.037665 9.302117 -1.968925 -11.050039 -1.614387 18.401810 -0.000018 0.000034 0.000007 -0.000000 0.000000 0.000000 
10.891799 183.689301 8.242726 -5.747871 -50.289757 -1.668264 4.289834 0.490193 -0.940914 8.512764 0.951428 -0.278718 8.516204 0.920327 -0.275107 0.373274 5.145882 -4.846631 -4.167661 23.287663 -12.115221 -0.000000 -0.000000 0.000001 -0.000000 -0.000000 0.000001 -0.000000 -0.000000 0.000001 0.287742 1.374243 -1.393217 -43.735013 18.606769 -47.266941 -0.000317 -103.108870 -0.000341 -13.774749 0.363895 1.381452 0.092217 1.125456 -9.368807 0.130750 1.338172 -11.161014 0.138199 1.375314 -11.475123 -0.000004 0.000000 -0.000003 -8.267827 1.282172 18.901210 3.939045 7.948713 0.746815 -0.579474 1.575001 2.538725 0.000000 -0.000001 0.000000 0.120546 1.285275 -10.714319 0.120521 1.285274 -10.714360 0.120534 1.285266 -10.714331 0.000000 -0.000001 -0.000001 0.110026 1.228377 -10.234706 0.154974 1.455508 -12.154498 0.164252 1.497939 -12.514488 -0.000002 -0.000002 -0.000000 1.117214 5.553198 -12.982230 0.185510 -2.449920 -13.931551 0.189189 1.606069 -13.434688 -0.000005 -0.000001 -0.000001 -0.417558 -6.631228 -1.728433 -55.260178 40.105908 80.156163 0.000585 100.351079 -0.000584 -1.510853 23.864929 -0.765921 0.033498 -0.683074 5.614151 0.047214 -0.810606 6.666951 0.050046 -0.834461 6.864343 -0.000001 -0.000001 0.000000 2.272865 -2.049738 -26.561026 4.637206 -8.634125 -0.225409 -1.273751 0.137315 -2.094866 -0.000001 0.000000 -0.000000 0.043264 -0.776129 6.382125 0.043276 -0.776124 6.382147 0.043272 -0.776110 6.382143 -0.000001 -0.000003 -0.000004 0.040178 -0.748019 6.150123 0.056656 -0.887599 7.303469 0.060044 -0.913683 7.519721 0.000000 0.000000 0.000001 0.069612 -0.983459 8.097407 0.069618 -0.983435 8.097441 0.069609 -0.983421 8.097427 0.000001 -0.000003 0.000002 -27.065226 8.812395 18.127556 39.510483 -8.247053 1.888633 -9.163269 2.056063 -14.390095 -0.000007 0.000012 0.000002 0.000000 0.000000 -0.000000 -23.055853 -12.798962 -30.332225 36.761280 9.257164 -1.419184 -12.287357 -2.002403 18.481124 -0.000018 0.000036 0.000007 0.000000 0.000002 0.000000 
10.442089 182.437149 8.782642 -7.500603 -49.048005 -2.488759 4.602440 0.777648 -1.046324 9.126259 1.482568 -0.325912 9.132222 1.445570 -0.320913 1.003610 4.554243 -4.905846 -4.153678 20.491973 -11.912575 0.000001 -0.000002 -0.000000 0.000001 -0.000002 -0.000000 0.000001 -0.000002 -0.000000 0.311628 1.005860 -1.237164 -45.124929 15.672431 -50.895424 -0.000127 -102.699940 -0.000126 -13.705053 0.364286 1.348362 0.092220 1.125460 -9.368812 0.130754 1.338170 -11.161019 0.138199 1.375313 -11.475124 0.000002 0.000000 -0.000001 -8.267825 1.282172 18.901208 3.939044 7.948715 0.746813 -0.579475 1.575001 2.538724 0.000000 0.000002 -0.000000 0.120546 1.285273 -10.714325 0.120520 1.285269 -10.714357 0.120540 1.285262 -10.714334 -0.000000 -0.000002 0.000001 0.110027 1.228379 -10.234712 0.154968 1.455510 -12.154499 0.164257 1.497934 -12.514482 0.000001 0.000002 0.000001 1.117217 5.553196 -12.982238 0.185508 -2.449918 -13.931552 0.189192 1.606065 -13.434681 -0.000001 0.000001 -0.000000 -0.347603 -6.107299 -1.517996 -54.305571 37.924878 78.636665 0.000171 99.090049 -0.000130 -2.605236 24.183661 -0.714855 0.033501 -0.683073 5.614153 0.047216 -0.810608 6.666949 0.050046 -0.834466 6.864348 -0.000001 0.000001 0.000003 2.272869 -2.049742 -26.561030 4.637201 -8.634122 -0.225409 -1.273761 0.137313 -2.094867 -0.000004 -0.000002 0.000001 0.043266 -0.776131 6.382127 0.043286 -0.776126 6.382154 0.043271 -0.776112 6.382141 0.000004 -0.000000 0.000002 0.040185 -0.748024 6.150124 0.056656 -0.887599 7.303473 0.060045 -0.913684 7.519716 -0.000004 0.000001 0.000001 0.069618 -0.983464 8.097407 0.069617 -0.983438 8.097450 0.069606 -0.983422 8.097420 0.000002 0.000000 0.000001 -27.035897 8.756783 17.802355 41.781107 -9.311673 1.978255 -10.393542 1.905108 -13.940327 -0.000037 -0.000012 0.000005 -0.000000 0.000000 0.000000 -22.713033 -13.316712 -31.997818 38.895113 9.206293 -1.355946 -13.866828 -1.394718 18.708841 -0.000018 0.000034 0.000007 0.000000 0.000002 -0.000000 
